<svg xmlns="http://www.w3.org/2000/svg" width="1200" height="630" viewBox="0 0 1200 630">
  <defs>
    <linearGradient id="bg" x1="0%" y1="0%" x2="100%" y2="100%">
      <stop offset="0%" style="stop-color:#0f172a"/>
      <stop offset="100%" style="stop-color:#1e293b"/>
    </linearGradient>
    <linearGradient id="accent" x1="0%" y1="0%" x2="100%" y2="0%">
      <stop offset="0%" style="stop-color:#06b6d4"/>
      <stop offset="100%" style="stop-color:#22d3ee"/>
    </linearGradient>
  </defs>
  <rect width="1200" height="630" fill="url(#bg)"/>
  <!-- Decorative grid dots -->
  <g fill="#334155" opacity="0.5">
    <circle cx="50" cy="50" r="2"/><circle cx="150" cy="50" r="2"/><circle cx="250" cy="50" r="2"/><circle cx="350" cy="50" r="2"/><circle cx="450" cy="50" r="2"/><circle cx="550" cy="50" r="2"/><circle cx="650" cy="50" r="2"/><circle cx="750" cy="50" r="2"/><circle cx="850" cy="50" r="2"/><circle cx="950" cy="50" r="2"/><circle cx="1050" cy="50" r="2"/><circle cx="1150" cy="50" r="2"/>
    <circle cx="50" cy="150" r="2"/><circle cx="150" cy="150" r="2"/><circle cx="250" cy="150" r="2"/><circle cx="350" cy="150" r="2"/><circle cx="450" cy="150" r="2"/><circle cx="550" cy="150" r="2"/><circle cx="650" cy="150" r="2"/><circle cx="750" cy="150" r="2"/><circle cx="850" cy="150" r="2"/><circle cx="950" cy="150" r="2"/><circle cx="1050" cy="150" r="2"/><circle cx="1150" cy="150" r="2"/>
    <circle cx="50" cy="250" r="2"/><circle cx="150" cy="250" r="2"/><circle cx="250" cy="250" r="2"/><circle cx="350" cy="250" r="2"/><circle cx="450" cy="250" r="2"/><circle cx="550" cy="250" r="2"/><circle cx="650" cy="250" r="2"/><circle cx="750" cy="250" r="2"/><circle cx="850" cy="250" r="2"/><circle cx="950" cy="250" r="2"/><circle cx="1050" cy="250" r="2"/><circle cx="1150" cy="250" r="2"/>
    <circle cx="50" cy="350" r="2"/><circle cx="150" cy="350" r="2"/><circle cx="250" cy="350" r="2"/><circle cx="350" cy="350" r="2"/><circle cx="450" cy="350" r="2"/><circle cx="550" cy="350" r="2"/><circle cx="650" cy="350" r="2"/><circle cx="750" cy="350" r="2"/><circle cx="850" cy="350" r="2"/><circle cx="950" cy="350" r="2"/><circle cx="1050" cy="350" r="2"/><circle cx="1150" cy="350" r="2"/>
    <circle cx="50" cy="450" r="2"/><circle cx="150" cy="450" r="2"/><circle cx="250" cy="450" r="2"/><circle cx="350" cy="450" r="2"/><circle cx="450" cy="450" r="2"/><circle cx="550" cy="450" r="2"/><circle cx="650" cy="450" r="2"/><circle cx="750" cy="450" r="2"/><circle cx="850" cy="450" r="2"/><circle cx="950" cy="450" r="2"/><circle cx="1050" cy="450" r="2"/><circle cx="1150" cy="450" r="2"/>
    <circle cx="50" cy="550" r="2"/><circle cx="150" cy="550" r="2"/><circle cx="250" cy="550" r="2"/><circle cx="350" cy="550" r="2"/><circle cx="450" cy="550" r="2"/><circle cx="550" cy="550" r="2"/><circle cx="650" cy="550" r="2"/><circle cx="750" cy="550" r="2"/><circle cx="850" cy="550" r="2"/><circle cx="950" cy="550" r="2"/><circle cx="1050" cy="550" r="2"/><circle cx="1150" cy="550" r="2"/>
  </g>
  <!-- Accent bar -->
  <rect x="80" y="200" width="8" height="230" rx="4" fill="url(#accent)"/>
  <!-- Main title -->
  <text x="120" y="300" font-family="system-ui,-apple-system,BlinkMacSystemFont,Segoe UI,Roboto,sans-serif" font-size="56" font-weight="700" fill="#f1f5f9">在线小工具矩阵</text>
  <!-- Subtitle -->
  <text x="120" y="370" font-family="system-ui,-apple-system,BlinkMacSystemFont,Segoe UI,Roboto,sans-serif" font-size="28" fill="#94a3b8">免费 · 在线 · 纯前端 · 700+ 实用工具</text>
  <!-- Tool icons row -->
  <g transform="translate(120, 440)">
    <rect x="0" y="0" width="50" height="50" rx="10" fill="#06b6d4" opacity="0.2"/>
    <text x="25" y="34" text-anchor="middle" font-size="26">🔐</text>
    <rect x="65" y="0" width="50" height="50" rx="10" fill="#06b6d4" opacity="0.2"/>
    <text x="90" y="34" text-anchor="middle" font-size="26">🎨</text>
    <rect x="130" y="0" width="50" height="50" rx="10" fill="#06b6d4" opacity="0.2"/>
    <text x="155" y="34" text-anchor="middle" font-size="26">🔧</text>
    <rect x="195" y="0" width="50" height="50" rx="10" fill="#06b6d4" opacity="0.2"/>
    <text x="220" y="34" text-anchor="middle" font-size="26">📷</text>
    <rect x="260" y="0" width="50" height="50" rx="10" fill="#06b6d4" opacity="0.2"/>
    <text x="285" y="34" text-anchor="middle" font-size="26">📝</text>
    <rect x="325" y="0" width="50" height="50" rx="10" fill="#06b6d4" opacity="0.2"/>
    <text x="350" y="34" text-anchor="middle" font-size="26">🌐</text>
  </g>
  <!-- Domain -->
  <text x="120" y="540" font-family="system-ui,-apple-system,BlinkMacSystemFont,Segoe UI,Roboto,sans-serif" font-size="20" fill="#64748b">webtools-cn.github.io/tools-site/</text>
</svg>
